<svg width="34" height="34" viewBox="0 0 34 34" fill="none" xmlns="http://www.w3.org/2000/svg">
<path d="M16.9987 33.6668C7.7937 33.6668 0.332031 26.2052 0.332031 17.0002C0.332031 7.79516 7.7937 0.333496 16.9987 0.333496C26.2037 0.333496 33.6654 7.79516 33.6654 17.0002C33.6654 26.2052 26.2037 33.6668 16.9987 33.6668ZM16.9987 30.3335C20.5349 30.3335 23.9263 28.9287 26.4268 26.4283C28.9273 23.9278 30.332 20.5364 30.332 17.0002C30.332 13.4639 28.9273 10.0726 26.4268 7.57207C23.9263 5.07159 20.5349 3.66683 16.9987 3.66683C13.4625 3.66683 10.0711 5.07159 7.57061 7.57207C5.07012 10.0726 3.66536 13.4639 3.66536 17.0002C3.66536 20.5364 5.07012 23.9278 7.57061 26.4283C10.0711 28.9287 13.4625 30.3335 16.9987 30.3335ZM18.6654 17.0002H25.332V20.3335H15.332V8.66683H18.6654V17.0002Z" fill="#6D787E"/>
</svg>
