<svg width="40" height="40" viewBox="0 0 40 40" fill="none" xmlns="http://www.w3.org/2000/svg">
<g clip-path="url(#clip0_79_3639)">
<path d="M19.9987 6.66683C16.4625 6.66683 13.0711 8.07159 10.5706 10.5721C8.07012 13.0726 6.66536 16.4639 6.66536 20.0002H11.6654C12.5494 20.0002 13.3973 20.3514 14.0224 20.9765C14.6475 21.6016 14.9987 22.4494 14.9987 23.3335V31.6668C14.9987 32.5509 14.6475 33.3987 14.0224 34.0239C13.3973 34.649 12.5494 35.0002 11.6654 35.0002H6.66536C5.78131 35.0002 4.93346 34.649 4.30834 34.0239C3.68322 33.3987 3.33203 32.5509 3.33203 31.6668V20.0002C3.33203 10.7952 10.7937 3.3335 19.9987 3.3335C29.2037 3.3335 36.6654 10.7952 36.6654 20.0002V31.6668C36.6654 32.5509 36.3142 33.3987 35.6891 34.0239C35.0639 34.649 34.2161 35.0002 33.332 35.0002H28.332C27.448 35.0002 26.6001 34.649 25.975 34.0239C25.3499 33.3987 24.9987 32.5509 24.9987 31.6668V23.3335C24.9987 22.4494 25.3499 21.6016 25.975 20.9765C26.6001 20.3514 27.448 20.0002 28.332 20.0002H33.332C33.332 16.4639 31.9273 13.0726 29.4268 10.5721C26.9263 8.07159 23.5349 6.66683 19.9987 6.66683ZM6.66536 23.3335V31.6668H11.6654V23.3335H6.66536ZM28.332 23.3335V31.6668H33.332V23.3335H28.332Z" fill="#6D787E"/>
</g>
<defs>
<clipPath id="clip0_79_3639">
<rect width="40" height="40" fill="white"/>
</clipPath>
</defs>
</svg>
